<svg width="512" height="512" viewBox="0 0 512 512" xmlns="http://www.w3.org/2000/svg">
  <g transform="translate(70.12466446417508,35.86754078050794) scale(1.0633904604583935)">
    <path d="M 163.03,400.10 L 161.32,400.16 L 159.63,400.15 L 157.94,400.09 L 156.24,400.02 L 154.54,399.97 L 152.83,399.97 L 151.10,400.03 L 149.35,400.15 L 147.59,400.29 L 145.83,400.44 L 144.08,400.58 L 142.34,400.68 L 140.61,400.73 L 138.90,400.70 L 137.20,400.61 L 135.49,400.47 L 133.78,400.30 L 132.04,400.10 L 130.28,399.89 L 128.48,399.66 L 126.71,399.36 L 125.04,398.89 L 123.57,398.16 L 122.36,397.08 L 121.44,395.71 L 120.83,394.12 L 120.54,392.42 L 120.57,390.69 L 120.94,389.01 L 121.63,387.45 L 122.54,385.98 L 123.55,384.55 L 124.58,383.13 L 125.58,381.70 L 126.57,380.26 L 127.53,378.81 L 128.48,377.36 L 129.42,375.90 L 130.34,374.43 L 131.25,372.96 L 132.15,371.48 L 133.03,369.99 L 133.91,368.50 L 134.77,366.99 L 135.63,365.49 L 136.47,363.97 L 137.30,362.45 L 138.12,360.93 L 138.93,359.39 L 139.73,357.85 L 140.52,356.31 L 141.30,354.76 L 142.07,353.20 L 142.82,351.64 L 143.57,350.07 L 144.31,348.50 L 145.03,346.92 L 145.75,345.34 L 146.45,343.75 L 147.15,342.16 L 147.83,340.56 L 148.50,338.96 L 149.17,337.36 L 149.82,335.74 L 150.46,334.13 L 151.10,332.51 L 151.72,330.89 L 152.33,329.26 L 152.93,327.63 L 153.53,325.99 L 154.11,324.35 L 154.68,322.71 L 155.24,321.07 L 155.79,319.42 L 156.34,317.76 L 156.87,316.11 L 157.39,314.45 L 157.90,312.79 L 158.41,311.12 L 158.90,309.46 L 159.38,307.79 L 159.85,306.11 L 160.32,304.44 L 160.77,302.76 L 161.21,301.08 L 161.64,299.39 L 162.07,297.71 L 162.48,296.02 L 162.88,294.33 L 163.27,292.64 L 163.65,290.94 L 164.02,289.25 L 164.38,287.55 L 164.73,285.85 L 165.07,284.15 L 165.39,282.44 L 165.71,280.74 L 166.02,279.03 L 166.31,277.32 L 166.60,275.61 L 166.87,273.89 L 167.14,272.18 L 167.39,270.47 L 167.63,268.75 L 167.86,267.03 L 168.08,265.31 L 168.29,263.59 L 168.49,261.87 L 168.68,260.15 L 168.85,258.43 L 169.02,256.70 L 169.17,254.98 L 169.31,253.25 L 169.45,251.53 L 169.57,249.80 L 169.68,248.07 L 169.77,246.35 L 169.86,244.62 L 169.94,242.89 L 170.00,241.16 L 170.05,239.43 L 170.09,237.70 L 170.12,235.97 L 170.14,234.24 L 170.15,232.51 L 170.15,230.78 L 170.14,229.05 L 170.11,227.32 L 170.08,225.59 L 170.03,223.86 L 169.98,222.13 L 169.91,220.40 L 169.84,218.66 L 169.75,216.93 L 169.65,215.20 L 169.54,213.47 L 169.43,211.74 L 169.30,210.01 L 169.16,208.27 L 169.01,206.54 L 168.86,204.81 L 168.69,203.08 L 168.52,201.36 L 168.34,199.64 L 168.16,197.92 L 167.98,196.21 L 167.79,194.50 L 167.60,192.80 L 167.41,191.11 L 167.22,189.43 L 167.03,187.76 L 166.81,186.08 L 166.55,184.39 L 166.22,182.66 L 165.82,180.90 L 165.32,179.10 L 164.68,177.33 L 163.87,175.76 L 162.81,174.59 L 161.49,173.95 L 159.95,173.79 L 158.27,174.01 L 156.52,174.51 L 154.77,175.20 L 153.10,175.98 L 151.53,176.80 L 150.03,177.65 L 148.58,178.52 L 147.15,179.40 L 145.72,180.29 L 144.27,181.19 L 142.80,182.09 L 141.33,182.99 L 139.84,183.90 L 138.36,184.81 L 136.87,185.73 L 135.38,186.66 L 133.90,187.59 L 132.42,188.53 L 130.95,189.48 L 129.49,190.44 L 128.04,191.40 L 126.59,192.36 L 125.15,193.33 L 123.71,194.30 L 122.27,195.28 L 120.84,196.25 L 119.42,197.23 L 117.99,198.21 L 116.57,199.19 L 115.14,200.17 L 113.72,201.14 L 112.30,202.12 L 110.87,203.09 L 109.45,204.06 L 108.02,205.03 L 106.60,205.99 L 105.17,206.95 L 103.74,207.90 L 102.31,208.86 L 100.88,209.81 L 99.44,210.76 L 98.01,211.71 L 96.58,212.65 L 95.14,213.60 L 93.71,214.55 L 92.27,215.49 L 90.84,216.44 L 89.40,217.38 L 87.97,218.33 L 86.53,219.27 L 85.10,220.22 L 83.66,221.17 L 82.23,222.12 L 80.80,223.08 L 79.37,224.03 L 77.93,224.99 L 76.50,225.96 L 75.08,226.92 L 73.65,227.89 L 72.22,228.86 L 70.80,229.84 L 69.37,230.82 L 67.95,231.81 L 66.53,232.80 L 65.12,233.80 L 63.70,234.80 L 62.29,235.81 L 60.88,236.82 L 59.47,237.84 L 58.06,238.86 L 56.65,239.89 L 55.24,240.91 L 53.83,241.93 L 52.41,242.94 L 50.99,243.95 L 49.57,244.95 L 48.14,245.94 L 46.71,246.92 L 45.26,247.88 L 43.82,248.83 L 42.36,249.76 L 40.89,250.68 L 39.41,251.57 L 37.92,252.44 L 36.42,253.28 L 34.91,254.09 L 33.38,254.81 L 31.82,255.33 L 30.24,255.59 L 28.62,255.48 L 26.97,254.93 L 25.32,253.91 L 23.80,252.54 L 22.59,250.98 L 21.80,249.36 L 21.42,247.72 L 21.35,246.06 L 21.50,244.38 L 21.80,242.70 L 22.16,241.01 L 22.50,239.31 L 22.82,237.62 L 23.15,235.92 L 23.48,234.23 L 23.84,232.55 L 24.24,230.86 L 24.66,229.19 L 25.11,227.52 L 25.60,225.85 L 26.11,224.20 L 26.65,222.55 L 27.23,220.91 L 27.83,219.28 L 28.45,217.65 L 29.11,216.04 L 29.80,214.44 L 30.51,212.85 L 31.25,211.27 L 32.01,209.70 L 32.81,208.15 L 33.63,206.61 L 34.47,205.08 L 35.34,203.57 L 36.24,202.07 L 37.16,200.59 L 38.11,199.13 L 39.08,197.68 L 40.07,196.25 L 41.09,194.83 L 42.14,193.43 L 43.21,192.06 L 44.30,190.70 L 45.41,189.36 L 46.54,188.04 L 47.70,186.75 L 48.88,185.47 L 50.08,184.22 L 51.31,182.99 L 52.55,181.78 L 53.82,180.60 L 55.10,179.44 L 56.41,178.30 L 57.73,177.19 L 59.08,176.10 L 60.44,175.03 L 61.82,173.98 L 63.22,172.96 L 64.63,171.97 L 66.06,170.99 L 67.51,170.04 L 68.97,169.11 L 70.45,168.21 L 71.94,167.32 L 73.45,166.46 L 74.97,165.63 L 76.50,164.81 L 78.05,164.02 L 79.61,163.25 L 81.18,162.51 L 82.76,161.78 L 84.36,161.08 L 85.96,160.40 L 87.57,159.75 L 89.20,159.11 L 90.83,158.50 L 92.47,157.91 L 94.12,157.35 L 95.78,156.80 L 97.44,156.28 L 99.11,155.78 L 100.79,155.30 L 102.47,154.85 L 104.16,154.41 L 105.85,154.00 L 107.55,153.61 L 109.25,153.24 L 110.96,152.89 L 112.66,152.56 L 114.36,152.24 L 116.06,151.93 L 117.76,151.63 L 119.45,151.33 L 121.14,151.04 L 122.81,150.75 L 124.48,150.46 L 126.16,150.17 L 127.90,149.89 L 129.76,149.63 L 131.79,149.42 L 133.87,149.19 L 135.61,148.84 L 136.57,148.29 L 136.37,147.57 L 135.19,146.78 L 133.70,146.06 L 132.15,145.44 L 130.55,144.90 L 128.91,144.43 L 127.22,144.02 L 125.51,143.66 L 123.78,143.32 L 122.03,143.01 L 120.29,142.70 L 118.55,142.38 L 116.82,142.05 L 115.10,141.70 L 113.39,141.33 L 111.69,140.96 L 110.00,140.58 L 108.31,140.20 L 106.62,139.81 L 104.94,139.42 L 103.25,139.04 L 101.57,138.67 L 99.88,138.30 L 98.20,137.94 L 96.51,137.59 L 94.82,137.24 L 93.13,136.90 L 91.44,136.56 L 89.75,136.23 L 88.06,135.90 L 86.37,135.57 L 84.67,135.25 L 82.98,134.93 L 81.28,134.60 L 79.59,134.28 L 77.89,133.96 L 76.19,133.64 L 74.50,133.32 L 72.80,132.99 L 71.10,132.67 L 69.40,132.34 L 67.70,132.01 L 66.00,131.67 L 64.29,131.33 L 62.59,130.98 L 60.89,130.64 L 59.19,130.29 L 57.48,129.94 L 55.78,129.58 L 54.08,129.23 L 52.37,128.88 L 50.67,128.53 L 48.96,128.18 L 47.26,127.84 L 45.55,127.50 L 43.84,127.16 L 42.14,126.83 L 40.43,126.51 L 38.72,126.19 L 37.02,125.88 L 35.31,125.58 L 33.60,125.29 L 31.89,125.01 L 30.18,124.73 L 28.47,124.45 L 26.77,124.15 L 25.07,123.83 L 23.37,123.46 L 21.68,123.04 L 20.00,122.55 L 18.33,121.99 L 16.67,121.34 L 15.02,120.60 L 13.44,119.73 L 12.03,118.71 L 10.87,117.54 L 10.06,116.17 L 9.68,114.60 L 9.71,112.88 L 10.09,111.12 L 10.75,109.42 L 11.61,107.89 L 12.64,106.52 L 13.82,105.29 L 15.12,104.19 L 16.52,103.19 L 18.00,102.26 L 19.52,101.39 L 21.07,100.54 L 22.62,99.71 L 24.16,98.87 L 25.70,98.04 L 27.24,97.22 L 28.77,96.41 L 30.32,95.61 L 31.86,94.83 L 33.42,94.08 L 34.99,93.34 L 36.57,92.64 L 38.16,91.97 L 39.77,91.32 L 41.39,90.71 L 43.02,90.12 L 44.67,89.57 L 46.32,89.04 L 47.98,88.55 L 49.66,88.08 L 51.34,87.64 L 53.03,87.23 L 54.72,86.86 L 56.43,86.51 L 58.13,86.19 L 59.85,85.90 L 61.57,85.65 L 63.30,85.42 L 65.02,85.22 L 66.76,85.06 L 68.49,84.92 L 70.23,84.82 L 71.96,84.75 L 73.70,84.70 L 75.44,84.69 L 77.18,84.71 L 78.92,84.76 L 80.65,84.84 L 82.39,84.96 L 84.12,85.10 L 85.85,85.28 L 87.57,85.48 L 89.29,85.72 L 91.00,85.99 L 92.71,86.30 L 94.41,86.63 L 96.10,87.00 L 97.79,87.40 L 99.47,87.83 L 101.14,88.29 L 102.80,88.79 L 104.45,89.31 L 106.09,89.87 L 107.72,90.47 L 109.33,91.09 L 110.94,91.74 L 112.54,92.42 L 114.12,93.13 L 115.70,93.87 L 117.26,94.63 L 118.81,95.42 L 120.35,96.23 L 121.88,97.06 L 123.40,97.91 L 124.90,98.79 L 126.40,99.68 L 127.88,100.60 L 129.35,101.53 L 130.82,102.48 L 132.26,103.44 L 133.70,104.42 L 135.13,105.41 L 136.55,106.41 L 137.95,107.43 L 139.35,108.46 L 140.73,109.50 L 142.11,110.54 L 143.47,111.60 L 144.83,112.66 L 146.18,113.73 L 147.51,114.81 L 148.84,115.89 L 150.16,116.97 L 151.48,118.06 L 152.78,119.15 L 154.08,120.24 L 155.31,121.23 L 156.16,121.64 L 156.29,120.91 L 155.74,119.18 L 154.98,117.29 L 154.19,115.53 L 153.37,113.89 L 152.53,112.33 L 151.69,110.81 L 150.84,109.30 L 149.99,107.79 L 149.13,106.27 L 148.28,104.74 L 147.42,103.22 L 146.57,101.70 L 145.71,100.17 L 144.85,98.66 L 144.00,97.14 L 143.15,95.64 L 142.29,94.14 L 141.44,92.64 L 140.59,91.15 L 139.74,89.66 L 138.88,88.18 L 138.03,86.70 L 137.17,85.22 L 136.31,83.74 L 135.45,82.26 L 134.59,80.79 L 133.72,79.31 L 132.85,77.83 L 131.98,76.35 L 131.10,74.87 L 130.21,73.39 L 129.33,71.90 L 128.43,70.41 L 127.53,68.92 L 126.63,67.42 L 125.73,65.93 L 124.82,64.43 L 123.91,62.93 L 123.01,61.44 L 122.10,59.95 L 121.19,58.46 L 120.29,56.97 L 119.39,55.50 L 118.49,54.02 L 117.60,52.56 L 116.72,51.10 L 115.84,49.65 L 114.97,48.21 L 114.11,46.78 L 113.25,45.37 L 112.40,43.95 L 111.55,42.54 L 110.68,41.11 L 109.81,39.68 L 108.92,38.22 L 108.01,36.75 L 107.07,35.24 L 106.10,33.70 L 105.12,32.13 L 104.19,30.53 L 103.33,28.92 L 102.58,27.30 L 101.98,25.68 L 101.58,24.07 L 101.41,22.47 L 101.51,20.89 L 101.92,19.34 L 102.63,17.86 L 103.61,16.49 L 104.82,15.30 L 106.21,14.35 L 107.75,13.70 L 109.39,13.36 L 111.11,13.29 L 112.89,13.43 L 114.71,13.73 L 116.52,14.13 L 118.32,14.58 L 120.09,15.03 L 121.82,15.50 L 123.52,15.97 L 125.19,16.45 L 126.84,16.95 L 128.46,17.46 L 130.08,18.00 L 131.67,18.56 L 133.26,19.15 L 134.84,19.76 L 136.42,20.41 L 137.98,21.08 L 139.54,21.79 L 141.09,22.52 L 142.63,23.29 L 144.15,24.08 L 145.66,24.91 L 147.16,25.76 L 148.64,26.64 L 150.11,27.55 L 151.56,28.50 L 152.98,29.47 L 154.39,30.47 L 155.78,31.50 L 157.15,32.56 L 158.49,33.64 L 159.81,34.76 L 161.10,35.90 L 162.37,37.08 L 163.61,38.28 L 164.83,39.50 L 166.02,40.76 L 167.19,42.03 L 168.33,43.34 L 169.44,44.66 L 170.53,46.01 L 171.59,47.38 L 172.62,48.77 L 173.62,50.19 L 174.59,51.62 L 175.54,53.08 L 176.45,54.55 L 177.34,56.05 L 178.20,57.56 L 179.03,59.08 L 179.83,60.63 L 180.59,62.19 L 181.33,63.76 L 182.03,65.35 L 182.71,66.96 L 183.35,68.57 L 183.96,70.20 L 184.54,71.84 L 185.08,73.50 L 185.60,75.16 L 186.08,76.83 L 186.52,78.52 L 186.93,80.21 L 187.31,81.91 L 187.65,83.61 L 187.96,85.33 L 188.24,87.05 L 188.48,88.77 L 188.69,90.49 L 188.87,92.22 L 189.03,93.95 L 189.17,95.67 L 189.28,97.40 L 189.37,99.11 L 189.45,100.83 L 189.51,102.53 L 189.56,104.22 L 189.60,105.91 L 189.63,107.58 L 189.65,109.25 L 189.65,110.93 L 189.62,112.65 L 189.54,114.43 L 189.41,116.28 L 189.22,118.22 L 188.97,120.27 L 188.71,122.31 L 188.59,124.09 L 188.74,125.36 L 189.30,125.88 L 190.29,125.61 L 191.55,124.77 L 192.97,123.58 L 194.38,122.26 L 195.71,120.97 L 196.99,119.72 L 198.24,118.50 L 199.51,117.31 L 200.78,116.15 L 202.07,115.01 L 203.37,113.90 L 204.69,112.81 L 206.02,111.74 L 207.37,110.68 L 208.73,109.65 L 210.11,108.62 L 211.50,107.61 L 212.91,106.61 L 214.34,105.63 L 215.78,104.66 L 217.23,103.71 L 218.70,102.77 L 220.18,101.85 L 221.68,100.95 L 223.19,100.06 L 224.71,99.20 L 226.24,98.35 L 227.79,97.52 L 229.35,96.72 L 230.91,95.93 L 232.49,95.16 L 234.08,94.42 L 235.68,93.70 L 237.29,93.00 L 238.91,92.33 L 240.53,91.68 L 242.17,91.05 L 243.81,90.46 L 245.46,89.88 L 247.12,89.34 L 248.79,88.82 L 250.46,88.33 L 252.14,87.86 L 253.82,87.43 L 255.51,87.03 L 257.20,86.65 L 258.90,86.31 L 260.60,86.00 L 262.31,85.72 L 264.02,85.47 L 265.73,85.26 L 267.45,85.08 L 269.16,84.93 L 270.88,84.82 L 272.60,84.74 L 274.33,84.69 L 276.05,84.67 L 277.77,84.69 L 279.49,84.74 L 281.21,84.82 L 282.93,84.93 L 284.65,85.07 L 286.37,85.25 L 288.08,85.45 L 289.79,85.69 L 291.50,85.96 L 293.21,86.26 L 294.91,86.58 L 296.60,86.94 L 298.29,87.33 L 299.98,87.75 L 301.66,88.19 L 303.33,88.67 L 305.00,89.17 L 306.66,89.71 L 308.31,90.27 L 309.95,90.86 L 311.59,91.48 L 313.21,92.13 L 314.83,92.80 L 316.44,93.51 L 318.04,94.24 L 319.63,95.00 L 321.20,95.78 L 322.77,96.59 L 324.32,97.43 L 325.86,98.29 L 327.39,99.18 L 328.91,100.10 L 330.41,101.04 L 331.90,102.01 L 333.35,103.01 L 334.75,104.06 L 336.04,105.16 L 337.21,106.34 L 338.21,107.60 L 339.02,108.96 L 339.59,110.44 L 339.89,112.04 L 339.91,113.75 L 339.63,115.50 L 339.06,117.18 L 338.20,118.70 L 337.06,119.97 L 335.64,120.90 L 334.01,121.54 L 332.25,121.99 L 330.46,122.37 L 328.69,122.74 L 326.95,123.10 L 325.22,123.46 L 323.50,123.81 L 321.80,124.16 L 320.11,124.51 L 318.43,124.86 L 316.75,125.20 L 315.07,125.54 L 313.38,125.88 L 311.70,126.22 L 310.00,126.56 L 308.31,126.90 L 306.61,127.23 L 304.91,127.57 L 303.20,127.91 L 301.50,128.25 L 299.80,128.58 L 298.09,128.92 L 296.38,129.26 L 294.68,129.60 L 292.97,129.94 L 291.27,130.28 L 289.56,130.62 L 287.86,130.96 L 286.16,131.30 L 284.45,131.64 L 282.75,131.98 L 281.04,132.32 L 279.34,132.66 L 277.64,133.00 L 275.93,133.34 L 274.23,133.69 L 272.52,134.03 L 270.82,134.37 L 269.12,134.71 L 267.41,135.05 L 265.71,135.39 L 264.01,135.73 L 262.30,136.07 L 260.60,136.41 L 258.89,136.75 L 257.19,137.09 L 255.48,137.43 L 253.78,137.77 L 252.07,138.11 L 250.37,138.44 L 248.66,138.78 L 246.96,139.12 L 245.25,139.45 L 243.54,139.79 L 241.84,140.12 L 240.13,140.45 L 238.42,140.79 L 236.71,141.12 L 235.01,141.45 L 233.30,141.78 L 231.59,142.11 L 229.88,142.44 L 228.17,142.76 L 226.46,143.09 L 224.75,143.43 L 223.04,143.82 L 221.33,144.28 L 219.63,144.84 L 217.93,145.53 L 216.29,146.35 L 215.02,147.22 L 214.50,148.04 L 215.06,148.70 L 216.49,149.19 L 218.44,149.54 L 220.54,149.75 L 222.46,149.86 L 224.18,149.94 L 225.86,150.08 L 227.54,150.30 L 229.23,150.58 L 230.92,150.89 L 232.62,151.22 L 234.32,151.55 L 236.02,151.89 L 237.73,152.24 L 239.43,152.60 L 241.14,152.97 L 242.84,153.36 L 244.54,153.75 L 246.24,154.16 L 247.94,154.59 L 249.63,155.03 L 251.31,155.50 L 252.99,155.98 L 254.67,156.48 L 256.33,157.01 L 257.99,157.55 L 259.64,158.12 L 261.27,158.72 L 262.90,159.34 L 264.52,159.99 L 266.12,160.67 L 267.71,161.38 L 269.29,162.11 L 270.85,162.87 L 272.41,163.65 L 273.94,164.47 L 275.47,165.30 L 276.98,166.16 L 278.47,167.05 L 279.95,167.96 L 281.41,168.90 L 282.86,169.86 L 284.29,170.85 L 285.71,171.86 L 287.10,172.89 L 288.49,173.94 L 289.85,175.02 L 291.19,176.12 L 292.52,177.24 L 293.83,178.39 L 295.12,179.55 L 296.38,180.74 L 297.63,181.95 L 298.86,183.18 L 300.07,184.43 L 301.26,185.70 L 302.43,186.99 L 303.57,188.29 L 304.70,189.62 L 305.80,190.97 L 306.88,192.33 L 307.93,193.72 L 308.96,195.12 L 309.97,196.54 L 310.96,197.97 L 311.92,199.43 L 312.85,200.90 L 313.77,202.38 L 314.65,203.88 L 315.52,205.39 L 316.36,206.92 L 317.17,208.46 L 317.96,210.02 L 318.72,211.58 L 319.46,213.16 L 320.18,214.75 L 320.87,216.35 L 321.53,217.95 L 322.17,219.57 L 322.79,221.19 L 323.38,222.83 L 323.94,224.47 L 324.48,226.11 L 324.99,227.77 L 325.47,229.43 L 325.93,231.09 L 326.36,232.77 L 326.77,234.45 L 327.14,236.13 L 327.49,237.82 L 327.81,239.52 L 328.09,241.22 L 328.29,242.92 L 328.37,244.63 L 328.30,246.34 L 328.02,248.05 L 327.52,249.75 L 326.76,251.40 L 325.76,252.88 L 324.53,254.10 L 323.08,254.94 L 321.47,255.43 L 319.76,255.60 L 318.00,255.49 L 316.26,255.13 L 314.59,254.55 L 313.04,253.79 L 311.57,252.89 L 310.17,251.90 L 308.81,250.85 L 307.45,249.78 L 306.08,248.72 L 304.69,247.69 L 303.29,246.66 L 301.88,245.65 L 300.46,244.65 L 299.03,243.66 L 297.60,242.67 L 296.17,241.68 L 294.74,240.70 L 293.31,239.71 L 291.88,238.73 L 290.45,237.75 L 289.02,236.76 L 287.59,235.78 L 286.16,234.80 L 284.74,233.82 L 283.31,232.84 L 281.88,231.86 L 280.45,230.88 L 279.02,229.90 L 277.59,228.92 L 276.16,227.94 L 274.73,226.96 L 273.29,225.99 L 271.86,225.01 L 270.43,224.03 L 268.99,223.06 L 267.56,222.08 L 266.12,221.11 L 264.68,220.13 L 263.24,219.16 L 261.80,218.18 L 260.36,217.21 L 258.92,216.23 L 257.48,215.26 L 256.04,214.28 L 254.60,213.31 L 253.16,212.34 L 251.72,211.36 L 250.28,210.39 L 248.84,209.41 L 247.40,208.44 L 245.96,207.46 L 244.52,206.49 L 243.08,205.52 L 241.64,204.54 L 240.21,203.56 L 238.77,202.59 L 237.33,201.61 L 235.90,200.64 L 234.46,199.66 L 233.03,198.68 L 231.60,197.71 L 230.17,196.73 L 228.74,195.75 L 227.31,194.77 L 225.89,193.79 L 224.47,192.81 L 223.04,191.83 L 221.62,190.85 L 220.20,189.87 L 218.77,188.89 L 217.35,187.92 L 215.91,186.95 L 214.48,185.98 L 213.03,185.02 L 211.58,184.07 L 210.12,183.13 L 208.65,182.19 L 207.17,181.27 L 205.67,180.35 L 204.16,179.45 L 202.64,178.56 L 201.10,177.68 L 199.55,176.82 L 197.97,175.97 L 196.38,175.15 L 194.82,174.49 L 193.34,174.18 L 192.01,174.41 L 190.89,175.35 L 190.11,176.83 L 189.78,178.46 L 189.83,180.14 L 190.13,181.86 L 190.56,183.59 L 191.00,185.31 L 191.42,187.03 L 191.82,188.74 L 192.21,190.45 L 192.58,192.15 L 192.94,193.84 L 193.29,195.54 L 193.63,197.23 L 193.96,198.93 L 194.27,200.62 L 194.59,202.32 L 194.89,204.02 L 195.18,205.72 L 195.47,207.42 L 195.75,209.12 L 196.02,210.83 L 196.29,212.54 L 196.54,214.24 L 196.79,215.96 L 197.03,217.67 L 197.26,219.38 L 197.49,221.10 L 197.71,222.81 L 197.92,224.53 L 198.12,226.25 L 198.31,227.97 L 198.50,229.69 L 198.67,231.42 L 198.84,233.14 L 199.00,234.87 L 199.16,236.59 L 199.30,238.32 L 199.44,240.05 L 199.57,241.78 L 199.69,243.51 L 199.81,245.24 L 199.91,246.97 L 200.01,248.70 L 200.10,250.44 L 200.18,252.17 L 200.26,253.91 L 200.32,255.64 L 200.38,257.38 L 200.43,259.11 L 200.47,260.85 L 200.51,262.58 L 200.53,264.32 L 200.55,266.06 L 200.56,267.79 L 200.56,269.53 L 200.55,271.27 L 200.54,273.00 L 200.52,274.74 L 200.48,276.48 L 200.44,278.21 L 200.40,279.95 L 200.34,281.69 L 200.28,283.42 L 200.21,285.16 L 200.13,286.89 L 200.04,288.63 L 199.94,290.36 L 199.84,292.09 L 199.72,293.83 L 199.60,295.56 L 199.47,297.29 L 199.34,299.02 L 199.19,300.75 L 199.04,302.48 L 198.88,304.21 L 198.71,305.94 L 198.53,307.66 L 198.34,309.39 L 198.15,311.11 L 197.95,312.83 L 197.74,314.55 L 197.52,316.27 L 197.29,317.99 L 197.06,319.71 L 196.82,321.43 L 196.57,323.14 L 196.31,324.85 L 196.04,326.56 L 195.77,328.27 L 195.48,329.98 L 195.19,331.68 L 194.89,333.39 L 194.59,335.09 L 194.27,336.79 L 193.95,338.49 L 193.62,340.18 L 193.28,341.88 L 192.93,343.57 L 192.58,345.26 L 192.21,346.94 L 191.84,348.63 L 191.46,350.31 L 191.07,351.99 L 190.68,353.67 L 190.28,355.35 L 189.86,357.02 L 189.45,358.70 L 189.02,360.37 L 188.59,362.05 L 188.15,363.73 L 187.71,365.40 L 187.26,367.08 L 186.80,368.77 L 186.33,370.45 L 185.86,372.14 L 185.39,373.83 L 184.91,375.52 L 184.42,377.22 L 183.93,378.93 L 183.43,380.63 L 182.93,382.35 L 182.40,384.05 L 181.85,385.74 L 181.25,387.38 L 180.58,388.98 L 179.84,390.51 L 179.00,391.95 L 178.05,393.29 L 176.97,394.52 L 175.75,395.62 L 174.41,396.60 L 172.97,397.45 L 171.43,398.18 L 169.82,398.79 L 168.16,399.28 L 166.46,399.66 L 164.74,399.93 L 163.03,400.10 Z" fill="#67E8F9" />
  </g>
</svg>
